<?xml version="1.0" standalone="no"?>
<!DOCTYPE svg PUBLIC "-//W3C//DTD SVG 20010904//EN"
 "http://www.w3.org/TR/2001/REC-SVG-20010904/DTD/svg10.dtd">
<svg version="1.0" xmlns="http://www.w3.org/2000/svg"
 width="128.000000pt" height="128.000000pt" viewBox="0 0 128.000000 128.000000"
 preserveAspectRatio="xMidYMid meet">
<metadata>
Created by potrace 1.11, written by Peter Selinger 2001-2013
</metadata>
<g transform="translate(0.000000,128.000000) scale(0.100000,-0.100000)"
fill="#000000" stroke="none">
<path d="M1114 1252 c-46 -37 -55 -85 -27 -133 26 -45 84 -60 132 -34 91 47
61 179 -42 183 -27 1 -49 -4 -63 -16z"/>
<path d="M668 1255 c-1 -2 -32 -5 -68 -6 -148 -6 -287 -67 -395 -174 -76 -75
-109 -115 -97 -115 4 0 2 -4 -4 -8 -14 -9 -46 -77 -70 -152 -20 -58 -26 -232
-11 -298 10 -46 47 -142 66 -172 42 -68 111 -146 165 -186 51 -39 150 -92 181
-98 6 -1 19 -5 30 -9 34 -10 97 -19 150 -20 201 -5 382 77 506 228 173 211
189 499 40 727 -99 151 -248 246 -431 274 -19 3 -40 7 -47 9 -6 2 -13 2 -15 0z
m127 -300 c231 -112 278 -404 94 -583 -34 -33 -128 -85 -164 -90 -149 -22
-242 2 -338 89 -127 113 -150 313 -52 461 35 53 128 123 189 142 81 25 199 17
271 -19z"/>
<path d="M774 880 c-30 -12 -64 -58 -64 -87 0 -38 29 -83 62 -97 39 -17 97 -3
120 28 61 83 -22 193 -118 156z"/>
</g>
</svg>
